<svg xmlns="http://www.w3.org/2000/svg" viewBox="0 23.25 27.75 36.95" width="27.75" height="36.95">
  <defs>
    <linearGradient id="grad1" x1="0%" y1="0%" x2="100%" y2="0%">
      <stop offset="0%" style="stop-color:#3b82f6; stop-opacity:1"></stop>
      <stop offset="100%" style="stop-color:#8b5cf6; stop-opacity:1"></stop>
    </linearGradient>
  </defs>
  <g>
    <path fill="url(#grad1)" d="M6 60.20Q4.20 60.20 2.75 58.70Q1.30 57.20 1.30 53.75Q1.30 50.95 1.95 48.25Q2.60 45.55 3.43 42.77Q4.25 40 4.83 37.02Q5.40 34.05 5.20 30.75Q3.85 30.95 2.55 31.45Q1.25 31.95 0 32.90Q0 29.75 0.55 27.77Q1.10 25.80 2.70 24.90Q4.30 24 7.45 24Q9.15 24 11.25 24.25Q13.35 24.50 15.58 24.75Q17.80 25 19.80 25Q21.75 25 23.30 24.63Q24.85 24.25 25.70 23.25Q26.70 23.90 27.23 25.02Q27.75 26.15 27.75 27.45Q27.75 28.80 27.13 30.07Q26.50 31.35 25.20 32.17Q23.90 33 21.80 33Q19.60 33 17 32.30Q14.40 31.60 11.65 31.10Q11.90 32.20 12.03 33.30Q12.15 34.40 12.15 35.55Q12.15 36.80 12.05 38.02Q11.95 39.25 11.75 40.55Q12.80 40 14.30 39.55Q15.80 39.10 17.38 38.80Q18.95 38.50 20.20 38.50Q21 38.50 21.60 38.65Q22.10 39.70 22.10 41.20Q22.10 43.60 20.90 46.10L20.55 46.25Q18.70 45.25 16.27 44.70Q13.85 44.15 11.20 43.95Q10.70 46.80 10.25 49.75Q9.80 52.70 9.80 55.80Q9.80 56.45 9.83 57.15Q9.85 57.85 9.90 58.55Q8.25 60.20 6 60.20Z"></path>
  </g>
</svg>
